<svg xmlns="http://www.w3.org/2000/svg" viewBox="0 0 80 80">
  <defs>
    <linearGradient id="logo-gradient" x1="0" x2="1" y1="0" y2="1">
      <stop offset="0%" stop-color="#fff3c4" />
      <stop offset="100%" stop-color="#ffd166" />
    </linearGradient>
  </defs>
  <rect x="4" y="4" width="72" height="72" rx="18" fill="url(#logo-gradient)" stroke="#f59e0b" stroke-width="2" />
  <path
    d="M30 18c-7.18 0-13 5.82-13 13v5.3c-3.4 2.06-5.5 5.73-5.5 9.7C11.5 52.32 17.18 58 24.5 58H30v6c0 5.52 4.48 10 10 10s10-4.48 10-10v-6h5.5C62.82 58 68.5 52.32 68.5 45c0-3.97-2.1-7.64-5.5-9.7V31c0-7.18-5.82-13-13-13-3.38 0-6.47 1.28-8.8 3.38C38.47 19.28 35.38 18 32 18z"
    fill="#fff"
    stroke="#f59e0b"
    stroke-width="2"
  />
  <path
    d="M32 28v16m8-22v38m8-32v16"
    stroke="#f59e0b"
    stroke-width="2"
    stroke-linecap="round"
  />
</svg>
