<svg xmlns="http://www.w3.org/2000/svg" width="360" height="84" viewBox="0 0 360 84">
  <!-- Background -->
  <rect width="360" height="84" rx="10" fill="#fbf0d7"/>

  <!-- Brain icon (nested SVG, scaled from 512x512 original) -->
  <svg x="6" y="6" width="72" height="72" viewBox="0 0 512 512">
    <g fill="none" stroke-linecap="round" stroke-width="24" stroke="#f3a008">
      <path d="M256 82v60"/>
      <path d="M180 102l22 56"/>
      <path d="M108 152l46 40"/>
      <path d="M78 232h60"/>
      <path d="M404 192l46-40"/>
      <path d="M334 158l22-56"/>
      <path d="M374 276h60"/>
      <path d="M104 316l48 16"/>
      <path d="M152 388l38-44"/>
      <path d="M410 332l-48 16"/>
      <path d="M360 392l-38-44"/>
    </g>
    <g transform="translate(96 142)">
      <path
        d="M160 0c-47.5 0-86 38.5-86 86v18.4C48.4 112.2 32 136 32 164c0 32 26 58 58 58h10v30c0 35.3 28.7 64 64 64s64-28.7 64-64v-30h10c32 0 58-26 58-58 0-28-16.4-51.8-42-59.6V86c0-47.5-38.5-86-86-86z"
        fill="#f5a623" stroke="#d97706" stroke-width="12" stroke-linejoin="round"/>
      <path
        d="M160 38c-24 0-44 20-44 44v136c0 24 20 44 44 44s44-20 44-44V82c0-24-20-44-44-44z"
        fill="#fcd373"/>
      <path
        d="M118 74c-17.7 0-32 14.3-32 32v56c0 17.7 14.3 32 32 32"
        fill="none" stroke="#d97706" stroke-width="12" stroke-linecap="round"/>
      <path
        d="M202 74c17.7 0 32 14.3 32 32v56c0 17.7-14.3 32-32 32"
        fill="none" stroke="#d97706" stroke-width="12" stroke-linecap="round"/>
      <path d="M160 28v220" stroke="#d97706" stroke-width="12" stroke-linecap="round"/>
    </g>
  </svg>

  <!-- App name text -->
  <text
    x="90"
    y="57"
    font-family="IPAGothic"
    font-size="40"
    font-weight="700"
    fill="#5a3b1c"
    letter-spacing="2"
  >脳トレ日和</text>
</svg>
